<?xml version="1.0" encoding="UTF-8"?>
<svg id="Layer_1" data-name="Layer 1" xmlns="http://www.w3.org/2000/svg" version="1.1" viewBox="0 0 114.2 81.8">
  <defs>
    <style>
      .cls-1 {
        fill: #b3c6d0;
      }

      .cls-1, .cls-2 {
        stroke-width: 0px;
      }

      .cls-2 {
        fill: none;
      }

      .cls-3 {
        isolation: isolate;
      }
    </style>
  </defs>
  <g class="cls-3">
    <g class="cls-3">
      <g class="cls-3">
        <path class="cls-1" d="M27.2,33.4l-6.8-17.9c-1.9,5.6-4.1,11.9-6.3,17.7-.1.4-.2.5-.4.5s-.3,0-.4-.5c-2.7-6.7-5.8-13.8-7.8-18.4-1-2.1-1.6-2.9-2.6-3.4-.6-.2-.8-.3-.8-.6s.1-.2.3-.2c.3,0,3.2.2,5.3.2s4.6-.2,4.9-.2.4,0,.4.2-.2.3-.8.5c-1,.3-1.4.7-1.4,1.4,0,1.2,2.6,8.2,4.7,13.9.2.4.2.5.2.5,0,0,0-.1.2-.5,1.4-4.1,3-8.5,4.1-12-.8-2-1-2.6-2.1-3.2-.5-.3-.6-.2-.6-.5s.1-.2.3-.2c.4,0,2.5.2,4.4.2,2.9,0,4.1-.2,4.7-.2s.3,0,.3.2-.1.3-.7.5c-1.1.3-1.4.6-1.4,1.3,0,1.2,2.5,8.4,4.6,13.8.2.5.2.6.2.6,0,0,.1-.1.3-.7,2.5-7,4.4-11.9,4.4-13.2s-.6-1.5-2.1-1.9c-.3-.1-.5-.2-.5-.4s.1-.2.3-.2c.3,0,1.9.2,3,.2s2.8-.2,3.1-.2.4,0,.4.2,0,.2-.3.3c-1.9.3-2.5,1.2-3.4,3.5l-7,18.6c-.1.3-.2.4-.4.4s-.2,0-.4-.4Z"/>
        <path class="cls-1" d="M34.1,33c0-.2.1-.2.4-.3,1.5-.4,2-1.1,3.2-4.1,1.8-4.9,4.4-12.1,5.4-15.1.1-.4.2-.7.2-.8s-.1-.3-.9-.6c-.5-.1-.7-.2-.7-.4s.1-.3.4-.3c3.6-.2,6.3-1.1,6.5-1.1s.3.1.3.3-.3.4-.3.7,0,.4.2.9c1.3,3.8,4.4,12.2,6.3,17,.8,2.1,1.3,2.8,2.2,3.2.6.2.9.3.9.5s-.1.2-.3.2c-.5,0-2.9-.2-5.1-.2s-4.4.2-4.7.2-.3,0-.3-.2c0-.3.2-.2.6-.4,1.3-.4,1.5-1,1.5-1.5s-.6-2.6-1.3-4.7c-.2-.5-.3-.6-.7-.6-.9,0-2.5-.1-4.7-.1s-2.9,0-3.4,0c-.4,0-.4.1-.5.3-.5,1.4-.8,2.5-1,3.2-.2.6-.2,1.1-.2,1.4,0,1,.6,1.6,2,2,.4.1.5.2.5.3s-.1.2-.3.2c-.3,0-2.1-.2-3.4-.2s-2.2.2-2.5.2-.4,0-.4-.2ZM40,24.9c.3,0,1.5,0,3.4,0s3.7,0,4.2-.1c.2,0,.3-.1.3-.3s0-.2,0-.3c-1.3-3.8-2.8-8.1-3.7-10.5-.2-.5-.2-.6-.3-.6-.1,0-.1.1-.2.5-1.2,3.3-2.6,7.2-3.8,10.7,0,.2-.1.3-.1.4s0,.1.2.2Z"/>
        <path class="cls-1" d="M79.4,33.3c-1.2-1.2-11.7-11.7-15.5-15.4-.4-.4-.7-.6-.8-.6-.2,0-.2.1-.2.4v9.6c0,3.4.6,4.4,2.9,5.2.4.1.6.2.6.4s0,.2-.3.2c-.5,0-2.5-.2-3.4-.2s-2.6.2-3.2.2-.3,0-.3-.2.1-.2.6-.3c1.7-.4,2.6-1.3,2.6-6v-9.5c0-3.3-.1-4.4-1.1-5.1-1-.7-2-.9-2-1.2s.1-.2.2-.2,1.5.2,2.1.2c1,0,1.5-.2,2-.2s.8.2,1.4.8c3.5,3.3,13.5,12.6,14.6,13.6.1.1.1.2.2.2s0,0,0-.2v-8.8c0-3.2-.8-4.4-2.7-4.9-.5-.2-.7-.2-.7-.5s0-.2.3-.2c.4,0,2.6.2,3.4.2s2.7-.2,3-.2.3,0,.3.2-.1.2-.6.4c-1.6.5-2.4,1.6-2.4,5v16.8c0,.4-.1.6-.3.6s-.4,0-.7-.4Z"/>
        <path class="cls-1" d="M86.2,32.5c1.2-.5,1.2-1.3,1.2-10.6s0-9.9-1.2-10.5c-.5-.2-.7-.2-.7-.5s0-.2.2-.2c.3,0,2.5.2,4.2.2s5-.3,5.9-.3c7.8,0,13.1,4.6,13.1,11.3s-5.3,11.4-13.1,11.4-3.8-.3-5.9-.3-3.9.2-4.2.2-.2,0-.2-.2c0-.2.2-.2.7-.5ZM103.4,22c0-8.1-2.9-10.9-7.3-10.9s-3,.5-3.3,1.4c-.3,1-.3,3.4-.3,9.4s0,8.6.3,9.6c.4.9,1.5,1.4,3.3,1.4,4.4,0,7.3-2.9,7.3-10.9Z"/>
      </g>
    </g>
    <g class="cls-3">
      <g class="cls-3">
        <path class="cls-1" d="M9.7,54.9c0-.2.2-.2.7-.5,1.4-.6,1.4-1.2,1.4-10.5s0-9.9-1.4-10.5c-.5-.2-.7-.3-.7-.5s0-.2.2-.2c.5,0,2.8.2,5.4.2,4.8,0,12.4-.2,13.4-.2s.2,0,.2.2c0,.3-.7.4-.7,1.6,0,2,.6,4.8.6,5.1s0,.3-.2.3-.3-.1-.4-.4c-1.7-5.4-4-6.1-7.5-6.1s-2.7.1-3.2.7c-.4.5-.7,1.7-.7,8.4,0,.7.4.9,2.1.9,3.2,0,3.6-.9,4.5-3.3,0-.2.2-.3.3-.3s.2,0,.2.2-.2,1.7-.2,3.7.2,3.3.2,3.6-.1.2-.2.2c-.1,0-.2,0-.3-.3-.8-2.4-1.4-3.3-4.5-3.3s-2.1.1-2.1.8c0,7.2.4,8.6.8,9.1.4.5,1,.6,2.9.6,4.2.1,6.9-1.5,7.8-8,0-.3.2-.5.4-.5s.2.1.2.3-.6,4-.6,6.9.7,1.4.7,1.7,0,.2-.2.2c-1.2,0-9-.1-13.4-.1s-5,.1-5.6.1-.2,0-.2-.2Z"/>
        <path class="cls-1" d="M39.8,50.1c-.2,0-.4.1-.4.5,0,3,.3,3.5,1,3.8.6.3,1,.3,1,.6s0,.2-.3.2c-.3,0-2.7-.2-4.3-.2s-3.8.2-4.1.2-.2,0-.2-.2c0-.2.2-.3.7-.6,1-.5,1.1-1.3,1.1-10.9s-.1-9.4-1.1-10c-.4-.2-.7-.3-.7-.5s0-.2.2-.2c.3,0,2.4.2,4.1.2s4.5-.4,5.8-.4c6.6,0,10.7,3.6,10.7,8.5s-4.7,9-10.1,9-1.6,0-2.3-.1h0c2.9.5,5.6,2.8,9.8,2.8s3.9-1.3,4.2-3.2c0-.1,0-.2.1-.2.2,0,.5.9.5,1.9,0,2.6-1.9,4.8-4.3,4.8-4.4,0-8.2-5.8-11.3-5.8ZM41.1,49.6c4.4,0,6.6-2.8,6.6-8.7s-2.1-7.8-5.4-7.8-2.2.3-2.6.9c-.5.7-.5,1.5-.5,9.6v5.3c0,.7.2.8,1.8.8Z"/>
        <path class="cls-1" d="M57.9,54.9c0-.2.2-.2.7-.5,1.4-.6,1.4-1.2,1.4-10.5s0-9.9-1.4-10.5c-.5-.2-.7-.3-.7-.5s0-.2.2-.2c.5,0,2.8.2,5.4.2,4.8,0,12.4-.2,13.4-.2s.2,0,.2.2c0,.3-.7.4-.7,1.6,0,2,.6,4.8.6,5.1s0,.3-.2.3-.3-.1-.4-.4c-1.7-5.4-4-6.1-7.5-6.1s-2.7.1-3.2.7c-.4.5-.7,1.7-.7,8.4,0,.7.4.9,2.1.9,3.2,0,3.6-.9,4.5-3.3,0-.2.2-.3.3-.3s.2,0,.2.2-.2,1.7-.2,3.7.2,3.3.2,3.6-.1.2-.2.2c-.1,0-.2,0-.3-.3-.8-2.4-1.4-3.3-4.5-3.3s-2.1.1-2.1.8c0,7.2.3,8.6.8,9.1.4.5,1,.6,2.9.6,4.2.1,6.9-1.5,7.8-8,0-.3.2-.5.4-.5s.2.1.2.3-.6,4-.6,6.9.7,1.4.7,1.7,0,.2-.2.2c-1.2,0-9-.1-13.4-.1s-5,.1-5.6.1-.2,0-.2-.2Z"/>
        <path class="cls-1" d="M88,50.1c-.2,0-.4.1-.4.5,0,3,.3,3.5,1,3.8.6.3,1,.3,1,.6s0,.2-.3.2c-.3,0-2.7-.2-4.3-.2s-3.8.2-4.1.2-.2,0-.2-.2c0-.2.2-.3.7-.6,1-.5,1.1-1.3,1.1-10.9s-.1-9.4-1.1-10c-.4-.2-.7-.3-.7-.5s0-.2.2-.2c.3,0,2.4.2,4.1.2s4.5-.4,5.8-.4c6.6,0,10.7,3.6,10.7,8.5s-4.7,9-10.1,9-1.6,0-2.3-.1h0c2.9.5,5.6,2.8,9.8,2.8s3.8-1.3,4.2-3.2c0-.1,0-.2.1-.2.2,0,.5.9.5,1.9,0,2.6-1.9,4.8-4.3,4.8-4.4,0-8.2-5.8-11.3-5.8ZM89.4,49.6c4.4,0,6.6-2.8,6.6-8.7s-2.1-7.8-5.4-7.8-2.2.3-2.6.9c-.5.7-.5,1.5-.5,9.6v5.3c0,.7.2.8,1.8.8Z"/>
      </g>
    </g>
  </g>
  <path class="cls-2" d="M26-13.7"/>
  <path class="cls-2" d="M-24.6,18.6"/>
</svg>